<svg width="962" height="880" viewBox="0 0 962 880" fill="none" xmlns="http://www.w3.org/2000/svg">
<g clip-path="url(#clip0)">
<path fill-rule="evenodd" clip-rule="evenodd" d="M399.642 82.4602C399.642 36.9149 436.556 0 482.099 0C527.637 0 564.557 36.9149 564.557 82.4602C564.557 112.98 547.974 139.626 523.328 153.883V235.392C769.154 255.972 962 454.107 962 695.489C962 695.489 812.666 877.725 508.666 879.525C150.533 881.649 0 695.489 0 695.489C0 453.797 193.344 255.463 439.622 235.314C439.835 235.296 440.048 235.279 440.26 235.262C440.464 235.246 440.667 235.229 440.871 235.213V153.885C416.223 139.628 399.642 112.981 399.642 82.4602ZM82.4571 653.607C82.4571 608.071 119.374 571.153 164.914 571.153C210.454 571.153 247.371 608.071 247.371 653.607C247.371 699.149 210.454 736.067 164.914 736.067C119.374 736.067 82.4571 699.149 82.4571 653.607ZM291.349 711.877C291.349 649.64 341.802 599.189 404.04 599.189C466.278 599.189 516.732 649.64 516.732 711.877C516.732 774.12 466.278 824.571 404.04 824.571C341.802 824.571 291.349 774.12 291.349 711.877Z" fill="#E70033"/>
</g>
<defs>
<clipPath id="clip0">
<rect width="962" height="879.543" fill="white"/>
</clipPath>
</defs>
</svg>
